<svg width="16" height="16" viewBox="0 0 16 16" fill="none" xmlns="http://www.w3.org/2000/svg">
<path fill-rule="evenodd" clip-rule="evenodd" d="M3.48478 3C4.25485 3 4.93921 3.3674 5.37286 3.93669C5.80651 3.36739 6.49087 3.00001 7.26095 3H11.091C12.7296 3 14.058 4.33058 14.058 5.97195V6.78255C14.058 7.97627 13.0919 8.94403 11.9002 8.94403L12.0951 8.99275C12.9951 9.21814 13.6264 10.0282 13.6264 10.9575V11.5917C13.6264 11.8006 13.7955 11.9699 14.004 11.9699C14.2126 11.9699 14.3817 11.8006 14.3817 11.5917V9.4843H16V11.7538C16 13.1863 14.8407 14.3475 13.4107 14.3475H12.116C10.6859 14.3475 9.52665 13.1863 9.52665 11.7538V10.8893C9.52665 10.173 8.94695 9.59236 8.23192 9.59236H7.29063V10.6732C7.29065 11.1506 7.64739 11.5377 8.12405 11.5377H8.94135V14.1314H7.26095C6.49084 14.1314 5.80651 13.7639 5.37286 13.1946C4.93921 13.7639 4.25489 14.1314 3.48478 14.1314H1.6507V11.5377H2.40593C2.8826 11.5377 3.26902 11.1506 3.26904 10.6732V6.45826C3.26901 5.98079 2.8826 5.5937 2.40593 5.59369H1.6507V3H3.48478Z" fill="#9D220D"/>
<path fill-rule="evenodd" clip-rule="evenodd" d="M1.83408 1.5C2.60416 1.5 3.28851 1.8674 3.72216 2.43669C4.15582 1.86739 4.84018 1.50001 5.61025 1.5H9.44028C11.0789 1.5 12.4073 2.83058 12.4073 4.47195V5.28255C12.4073 6.47627 11.4412 7.44403 10.2495 7.44403L10.4444 7.49275C11.3444 7.71814 11.9757 8.52825 11.9757 9.45749V10.0917C11.9757 10.3006 12.1448 10.4699 12.3533 10.4699C12.5619 10.4699 12.731 10.3006 12.731 10.0917V7.9843H14.3493V10.2538C14.3493 11.6863 13.19 12.8475 11.76 12.8475H10.4653C9.03522 12.8475 7.87595 11.6863 7.87595 10.2538V9.38927C7.87595 8.67303 7.29625 8.09236 6.58122 8.09236H5.61025V9.17316C5.61027 9.65063 5.99669 10.0377 6.47335 10.0377H7.29065V12.6314H5.61025C4.84014 12.6314 4.15581 12.2639 3.72216 11.6946C3.28851 12.2639 2.60419 12.6314 1.83408 12.6314H0V10.0377H0.755233C1.23191 10.0377 1.61832 9.65064 1.61834 9.17316V4.95826C1.61831 4.48079 1.2319 4.0937 0.755233 4.09369H0V1.5H1.83408ZM5.61025 6.03907H7.22859C7.76486 6.03907 8.19956 5.60349 8.19956 5.06631C8.19954 4.52915 7.76485 4.09369 7.22859 4.09369H5.61025V6.03907Z" fill="#F6C299"/>
</svg>
