<svg width="154" height="28" viewBox="0 0 154 28" fill="none" xmlns="http://www.w3.org/2000/svg">
<path d="M92.7683 16.8997H89.7727V21.8017H90.9981L92.6321 20.7123C93.7215 21.9106 96.2632 22.1194 97.3979 22.074C104.479 22.074 104.751 16.4912 102.164 14.4487C99.5766 12.4062 94.6746 13.1316 94.6746 11.5892C94.6746 10.711 95.7186 10.4999 96.1724 10.4999C98.46 10.391 99.9397 11.907 100.394 12.6786H103.117V8.04894H101.891L100.121 9.00208C96.5809 6.41493 90.045 7.23192 89.9088 11.9977C89.7727 16.7635 96.1724 16.8997 97.3979 17.172C98.6234 17.4443 99.0319 19.2145 96.5809 19.3507C94.6202 19.4596 93.2222 17.7621 92.7683 16.8997Z" fill="#9D220D"/>
<path d="M107.066 7.91306C107.96 7.91307 108.763 8.30548 109.312 8.92743C109.861 8.30543 110.664 7.91308 111.559 7.91306H113.874V11.181H112.921C112.319 11.181 111.832 11.6687 111.832 12.2703V17.5809C111.832 18.1825 112.319 18.6702 112.921 18.6702H114.691C115.292 18.6702 115.78 18.1825 115.78 17.5809V14.8575H119.729V21.8019H119.457C118.868 21.8019 118.319 21.6303 117.856 21.3342C117.354 21.7132 116.73 21.9381 116.053 21.9381H111.559C110.664 21.9381 109.861 21.5456 109.312 20.9235C108.763 21.5456 107.961 21.9381 107.066 21.9381H104.751V18.6702H105.704C106.306 18.6702 106.793 18.1825 106.793 17.5809V12.2703C106.793 11.6687 106.306 11.181 105.704 11.181H104.751V7.91306H107.066Z" fill="#9D220D"/>
<path d="M138.792 7.91306C139.283 7.91306 139.745 8.03078 140.154 8.2396C140.562 8.03076 141.025 7.91306 141.516 7.91306H144.103C144.859 7.91306 145.55 8.19358 146.077 8.65599C146.604 8.19352 147.295 7.91306 148.051 7.91306H150.639C151.156 7.91306 151.644 8.04449 152.068 8.27571C152.493 8.0445 152.98 7.91306 153.498 7.91306H153.77V13.4959H150.366V12.2703C150.366 11.6875 149.909 11.2117 149.333 11.1825L149.277 11.181L149.228 11.1823C148.724 11.2079 148.324 11.6242 148.324 12.1341V17.5809C148.324 18.1824 148.812 18.6701 149.413 18.6702H151.456V21.9381H148.051C147.295 21.9381 146.604 21.6576 146.077 21.1952C145.55 21.6576 144.859 21.9381 144.103 21.9381H140.971V18.6702H142.741C143.343 18.6701 143.83 18.1824 143.83 17.5809V12.2703C143.83 11.6875 143.373 11.2116 142.797 11.1825L142.741 11.181L142.692 11.1823C142.188 11.2079 141.788 11.6242 141.788 12.1341V13.4959H138.52V10.9087C138.52 10.9044 138.52 10.9001 138.52 10.8958V7.91306H138.792Z" fill="#9D220D"/>
<path fill-rule="evenodd" clip-rule="evenodd" d="M4.39678 7.91306C5.36868 7.91306 6.23239 8.37596 6.77969 9.09324C7.327 8.37596 8.19072 7.91307 9.16261 7.91306H13.9964C16.0645 7.91306 17.7411 9.58953 17.7411 11.6576V12.6789C17.7411 14.1829 16.5218 15.4022 15.0177 15.4022L15.2638 15.4636C16.3996 15.7476 17.1964 16.7683 17.1964 17.9391V18.7382C17.1964 19.0013 17.4098 19.2147 17.6729 19.2147C17.9362 19.2147 18.1495 19.0014 18.1495 18.7382V16.083H20.192V18.9424C20.192 20.7473 18.7289 22.2104 16.9241 22.2104H15.29C13.4852 22.2103 12.0221 20.7473 12.0221 18.9424V17.8531C12.0221 16.9507 11.2905 16.2191 10.3881 16.2191H9.20008V17.5809C9.2001 18.1824 9.65033 18.6701 10.2519 18.6702H11.2834V21.9381H9.16261C8.19067 21.9381 7.32699 21.4751 6.77969 20.7577C6.23239 21.4751 5.36873 21.9381 4.39678 21.9381H2.08202V18.6702H3.03519C3.63679 18.6702 4.12447 18.1825 4.1245 17.5809V12.2703C4.12446 11.6687 3.63678 11.181 3.03519 11.181H2.08202V7.91306H4.39678Z" fill="#9D220D"/>
<path fill-rule="evenodd" clip-rule="evenodd" d="M30.1321 7.91302C34.0426 7.91302 37.2127 11.0831 37.2127 14.9936C37.2127 18.9041 34.0426 22.0742 30.1321 22.0742H27.9535C24.043 22.0742 20.8729 18.9041 20.8729 14.9936C20.8729 11.0831 24.043 7.91303 27.9535 7.91302H30.1321ZM29.0428 10.9675C27.238 10.9675 25.7749 12.4306 25.7748 14.2354V15.752C25.7748 17.5568 27.2379 19.0199 29.0428 19.0199C30.8476 19.0199 32.3109 17.5568 32.3109 15.752V14.2354C32.3108 12.4306 30.8476 10.9675 29.0428 10.9675Z" fill="#9D220D"/>
<path fill-rule="evenodd" clip-rule="evenodd" d="M81.6027 7.91302C85.5132 7.91302 88.6832 11.0831 88.6833 14.9936C88.6833 18.9041 85.5132 22.0742 81.6027 22.0742H79.4241C75.5135 22.0742 72.3435 18.9041 72.3435 14.9936C72.3435 11.0831 75.5136 7.91303 79.4241 7.91302H81.6027ZM80.5134 10.9675C78.7085 10.9675 77.2455 12.4306 77.2454 14.2354V15.752C77.2454 17.5568 78.7085 19.0199 80.5134 19.0199C82.3182 19.0199 83.7815 17.5568 83.7815 15.752V14.2354C83.7814 12.4306 82.3182 10.9675 80.5134 10.9675Z" fill="#9D220D"/>
<path fill-rule="evenodd" clip-rule="evenodd" d="M130.35 7.92323C134.26 7.92323 137.431 11.0933 137.431 15.0038C137.431 18.9143 134.26 22.0844 130.35 22.0844H128.171C124.261 22.0844 121.091 18.9143 121.091 15.0038C121.091 11.0933 124.261 7.92324 128.171 7.92323H130.35ZM129.261 10.9777C127.456 10.9777 125.993 12.4408 125.993 14.2456V15.7622C125.993 17.567 127.456 19.0301 129.261 19.0301C131.065 19.0301 132.529 17.567 132.529 15.7622V14.2456C132.529 12.4408 131.065 10.9777 129.261 10.9777Z" fill="#9D220D"/>
<path fill-rule="evenodd" clip-rule="evenodd" d="M39.5274 7.91306C40.4273 7.91306 41.2346 8.3138 41.7837 8.94811C42.3469 8.31379 43.1748 7.91307 44.0978 7.91306H46.7442C50.6546 7.91308 53.8247 11.0832 53.8247 14.9936C53.8247 18.9041 50.6546 22.0742 46.7442 22.0742H44.0978C43.1747 22.0742 42.3469 21.6734 41.7837 21.039C41.2346 21.6734 40.4274 22.0742 39.5274 22.0742H37.2127V18.7746H38.1658C38.7674 18.7746 39.2551 18.2869 39.2551 17.6853V12.3022C39.2551 11.7005 38.7675 11.2127 38.1658 11.2127H37.2127V7.91306H39.5274ZM45.4665 11.2127C44.8649 11.2127 44.3772 11.7005 44.3772 12.3022V17.6853C44.3772 18.2869 45.0532 18.7746 45.6549 18.7746C47.4596 18.7746 48.9229 17.3113 48.9229 15.5065V14.4806C48.9229 12.7039 47.505 11.2584 45.7391 11.2137L45.4665 11.2127Z" fill="#9D220D"/>
<path d="M57.5014 7.91306C58.3961 7.91306 59.1992 8.30925 59.7481 8.93726C60.297 8.30923 61.1001 7.91306 61.9949 7.91306H67.85C68.3678 7.91307 68.8549 8.04565 69.2798 8.2791C69.7047 8.04567 70.1918 7.91306 70.7095 7.91306H70.9818V13.6321H67.5776V12.302C67.5776 11.7004 67.0899 11.2127 66.4883 11.2127H63.3565L63.3005 11.2142C62.725 11.2434 62.2672 11.7192 62.2672 12.302V13.6321H64.9156V16.3552H62.2672V17.6853C62.2672 18.2681 62.725 18.7439 63.3005 18.7731L63.3565 18.7746H66.4883C67.0899 18.7746 67.5775 18.2869 67.5776 17.6853V16.3552H70.9818V22.0742H70.7095C70.1918 22.0742 69.7047 21.9415 69.2798 21.708C68.8549 21.9415 68.3678 22.0742 67.85 22.0742H61.9949C61.1001 22.0742 60.297 21.6779 59.7481 21.0499C59.1992 21.6779 58.3962 22.0742 57.5014 22.0742H55.1866V18.7746H56.1398C56.7414 18.7746 57.229 18.2869 57.2291 17.6853V12.3022C57.2291 11.7006 56.7414 11.2127 56.1398 11.2127H55.1866V7.91306H57.5014Z" fill="#9D220D"/>
<path d="M118.749 23.2082L134.374 23.2081L132.985 25.9836H127.082L124.912 27.722L124.13 25.9836H117.36L118.749 23.2082Z" fill="#9D220D"/>
<path d="M125.693 4.11393H131.596L133.766 2.36768L134.721 4.11393H141.318L139.929 6.88156H124.304L125.693 4.11393Z" fill="#9D220D"/>
<path fill-rule="evenodd" clip-rule="evenodd" d="M2.31476 5.82943C3.28665 5.82943 4.15036 6.29233 4.69767 7.00961C5.24498 6.29233 6.10869 5.82943 7.08059 5.82943H11.9144C13.9824 5.82943 15.6591 7.5059 15.6591 9.57393V10.5953C15.6591 12.0993 14.4397 13.3186 12.9357 13.3186L13.1817 13.38C14.3176 13.664 15.1143 14.6847 15.1143 15.8555V16.6545C15.1143 16.9177 15.3277 17.1311 15.5909 17.1311C15.8541 17.1311 16.0675 16.9177 16.0675 16.6545V13.9993H18.11V16.8588C18.11 18.6637 16.6469 20.1267 14.8421 20.1267H13.208C11.4032 20.1267 9.94008 18.6637 9.94008 16.8588V15.7695C9.94008 14.8671 9.20846 14.1355 8.30604 14.1355H7.08059V15.4972C7.08061 16.0988 7.56831 16.5865 8.16989 16.5865H9.20139V19.8545H7.08059C6.10865 19.8545 5.24497 19.3915 4.69767 18.6741C4.15037 19.3914 3.2867 19.8545 2.31476 19.8545H0V16.5865H0.953166C1.55477 16.5865 2.04245 16.0988 2.04247 15.4972V10.1867C2.04244 9.58508 1.55476 9.09735 0.953166 9.09735H0V5.82943H2.31476ZM7.08059 11.5484H9.12306C9.79988 11.5484 10.3485 10.9996 10.3485 10.3228C10.3485 9.646 9.79986 9.09735 9.12306 9.09735H7.08059V11.5484Z" fill="#F6C299"/>
<path fill-rule="evenodd" clip-rule="evenodd" d="M28.0501 5.82943C31.9606 5.82943 35.1306 8.99952 35.1306 12.91C35.1306 16.8205 31.9606 19.9906 28.0501 19.9906H25.8714C21.9609 19.9906 18.7909 16.8205 18.7909 12.91C18.7909 8.99952 21.961 5.82944 25.8714 5.82943H28.0501ZM26.9608 8.8839C25.1559 8.88392 23.6929 10.347 23.6928 12.1518V13.6684C23.6928 15.4732 25.1559 16.9363 26.9608 16.9363C28.7656 16.9363 30.2288 15.4732 30.2288 13.6684V12.1518C30.2288 10.347 28.7656 8.8839 26.9608 8.8839Z" fill="#F6C299"/>
<path fill-rule="evenodd" clip-rule="evenodd" d="M37.4454 5.82943C38.3453 5.82943 39.1525 6.23017 39.7017 6.86448C40.2649 6.23016 41.0928 5.82944 42.0158 5.82943H44.6621C48.5726 5.82945 51.7427 8.99953 51.7427 12.91C51.7427 16.8205 48.5726 19.9906 44.6621 19.9906H42.0158C41.0927 19.9906 40.2649 19.5898 39.7017 18.9554C39.1525 19.5897 38.3454 19.9906 37.4454 19.9906H35.1306V16.691H36.0838C36.6854 16.691 37.1731 16.2033 37.1731 15.6017V10.2185C37.1731 9.61692 36.6854 9.12906 36.0838 9.12906H35.1306V5.82943H37.4454ZM43.3845 9.12906C42.7828 9.12906 42.2952 9.61691 42.2952 10.2185V15.6017C42.2952 16.2033 42.9712 16.691 43.5728 16.691C45.3776 16.6909 46.8409 15.2277 46.8409 13.4229V12.397C46.8409 10.6203 45.423 9.17479 43.6571 9.13007L43.3845 9.12906Z" fill="#F6C299"/>
<path d="M55.4194 5.82943C56.3141 5.82945 57.1173 6.22564 57.6662 6.85363C58.2151 6.22562 59.0182 5.82943 59.913 5.82943H65.7681C66.2858 5.82945 66.773 5.96203 67.1978 6.19547C67.6227 5.96206 68.1099 5.82943 68.6276 5.82943H68.8999V11.5484H65.4956V10.2184C65.4956 9.6168 65.0079 9.1291 64.4063 9.12906H61.2745L61.2186 9.13058C60.643 9.15972 60.1853 9.63555 60.1852 10.2184V11.5484H63.1809V14.2716H60.1852V15.6017C60.1853 16.1845 60.643 16.6603 61.2186 16.6894L61.2745 16.691H64.4063C65.0079 16.6909 65.4956 16.2032 65.4956 15.6017V14.2716H68.8999V19.9906H68.6276C68.1098 19.9906 67.6227 19.8578 67.1978 19.6244C66.773 19.8579 66.2858 19.9906 65.7681 19.9906H59.913C59.0182 19.9906 58.2151 19.5943 57.6662 18.9662C57.1173 19.5943 56.3142 19.9906 55.4194 19.9906H53.1047V16.691H54.0578C54.6594 16.6909 55.1471 16.2032 55.1471 15.6017V10.2185C55.1471 9.61695 54.6594 9.1291 54.0578 9.12906H53.1047V5.82943H55.4194Z" fill="#F6C299"/>
<path fill-rule="evenodd" clip-rule="evenodd" d="M79.5207 5.82943C83.4312 5.82944 86.6012 8.99952 86.6013 12.91C86.6013 16.8205 83.4312 19.9906 79.5207 19.9906H77.342C73.4315 19.9906 70.2615 16.8205 70.2615 12.91C70.2615 8.99952 73.4316 5.82944 77.342 5.82943H79.5207ZM78.4314 8.8839C76.6265 8.88392 75.1635 10.347 75.1634 12.1518V13.6684C75.1634 15.4732 76.6265 16.9363 78.4314 16.9363C80.2362 16.9363 81.6995 15.4732 81.6995 13.6684V12.1518C81.6994 10.347 80.2362 8.88391 78.4314 8.8839Z" fill="#F6C299"/>
<path d="M130.904 23.9002H125.001L122.83 25.6385L122.049 23.9002H115.279L116.667 21.1246H132.292L130.904 23.9002Z" fill="#F58A8A"/>
<path fill-rule="evenodd" clip-rule="evenodd" d="M128.269 5.83974C132.179 5.83974 135.349 9.00982 135.349 12.9203C135.349 16.8308 132.179 20.0009 128.269 20.0009H126.09C122.18 20.0009 119.01 16.8308 119.01 12.9203C119.01 9.00983 122.18 5.83975 126.09 5.83974H128.269ZM127.179 8.89421C125.375 8.89422 123.912 10.3573 123.912 12.1621V13.6787C123.912 15.4835 125.375 16.9466 127.179 16.9466C128.984 16.9466 130.447 15.4835 130.447 13.6787V12.1621C130.447 10.3573 128.984 8.89421 127.179 8.89421Z" fill="#F58A8A"/>
<path d="M87.8277 9.91417C87.9639 5.14842 94.4998 5.02584 98.0401 6.91853L99.8103 5.96537H101.036V10.5951H98.3124C97.8585 9.82344 96.3788 8.30752 94.0913 8.41644C93.6374 8.41644 92.5934 8.62751 92.5934 9.50574C92.5934 11.0481 97.4954 10.3228 100.083 12.3652C102.67 14.4077 102.397 19.9906 95.3167 19.9906C94.182 20.036 91.6402 19.8271 90.5509 18.6288L88.917 19.7181H87.6914V14.8161H90.687C91.1409 15.6785 92.5389 17.3761 94.4997 17.2672C96.9507 17.131 96.5422 15.3609 95.3167 15.0886C94.0912 14.8163 87.6915 14.68 87.8277 9.91417Z" fill="#F58A8A"/>
<path d="M104.985 5.82956C105.879 5.82957 106.682 6.22199 107.231 6.84393C107.78 6.22194 108.583 5.82958 109.478 5.82956H111.793V9.09749H110.84C110.238 9.09749 109.75 9.58521 109.75 10.1868V15.4974C109.75 16.099 110.238 16.5867 110.84 16.5867H112.61C113.211 16.5867 113.699 16.099 113.699 15.4974V12.774H117.648V19.7185H117.376C116.787 19.7184 116.238 19.5468 115.775 19.2507C115.273 19.6297 114.649 19.8546 113.971 19.8546H109.478C108.583 19.8546 107.78 19.4621 107.231 18.8401C106.682 19.4621 105.879 19.8546 104.985 19.8546H102.67V16.5867H103.623C104.224 16.5867 104.712 16.099 104.712 15.4974V10.1868C104.712 9.58521 104.224 9.09749 103.623 9.09749H102.67V5.82956H104.985Z" fill="#F58A8A"/>
<path d="M136.711 5.82956C137.201 5.82957 137.664 5.94729 138.073 6.1561C138.481 5.94727 138.944 5.82956 139.434 5.82956H142.021C142.778 5.82956 143.469 6.11008 143.996 6.5725C144.523 6.11002 145.214 5.82957 145.97 5.82956H148.558C149.075 5.82957 149.562 5.96099 149.987 6.19221C150.412 5.96101 150.899 5.82956 151.417 5.82956H151.689V11.4124H148.285V10.1868C148.285 9.60401 147.827 9.12818 147.252 9.09901L147.196 9.09749L147.147 9.09884C146.643 9.12437 146.243 9.54071 146.243 10.0507V15.4974C146.243 16.0989 146.73 16.5866 147.332 16.5867H149.375V19.8546H145.97C145.214 19.8546 144.523 19.5741 143.996 19.1117C143.469 19.5741 142.778 19.8546 142.021 19.8546H138.89V16.5867H140.66C141.262 16.5866 141.749 16.0989 141.749 15.4974V10.1868C141.749 9.60399 141.291 9.12815 140.716 9.09901L140.66 9.09749L140.611 9.09884C140.107 9.12441 139.707 9.54073 139.707 10.0507V11.4124H136.439V8.8252C136.439 8.8209 136.439 8.81661 136.439 8.81232V5.82956H136.711Z" fill="#F58A8A"/>
<path d="M132.64 2.03046H139.237L137.848 4.79807H122.223L123.612 2.03046H129.515L131.685 0.28418L132.64 2.03046Z" fill="#F58A8A"/>
</svg>
